<svg xmlns="http://www.w3.org/2000/svg" viewBox="0 0 798.57 131.77"><defs><style>.cls-1{fill:#ef4e30;}</style></defs><g id="Layer_2" data-name="Layer 2"><g id="Layer_1-2" data-name="Layer 1"><polygon class="cls-1" points="442.27 7.62 442.27 8.38 442.27 15.23 442.27 16 412.42 16 382.56 16 0 16 0 15.23 0 8.38 0 7.62 0 0.76 0 0 382.56 0 412.42 0 442.27 0 442.27 0.76 442.27 7.62"/><path class="cls-1" d="M460.27,0h36.85c.66,0,1.24,0,2.06,0,1.54.07,3.07.12,4.6.26l4.57.7a50.14,50.14,0,0,1,38.34,36,34.77,34.77,0,0,1,1,4.5l.34,2.29L548.2,45l.07,1.15.12,2.3.05,1.15,0,.57V81.64l.16,3.16a34.12,34.12,0,0,0,33.77,31H798.57v16H582.32a50.14,50.14,0,0,1-49.63-45.53c-.08-1.53-.16-3.07-.22-4.59V50.13l0-.41,0-.78-.08-1.58,0-.78-.13-.78-.23-1.55a22.56,22.56,0,0,0-.68-3.06,34.18,34.18,0,0,0-26.07-24.51c-1-.15-2.07-.31-3.1-.48s-2.1-.1-3.15-.17c-.47-.05-1.17,0-1.81,0H429.24V0Z"/></g></g></svg>