<svg xmlns:xlink="http://www.w3.org/1999/xlink" xmlns="http://www.w3.org/2000/svg" viewBox="0 0 368.4 434.48" width="368.4"  height="434.48" ><defs><style>.cls-1{fill:#fff;}</style></defs><g id="Layer_2" data-name="Layer 2"><g id="Layer_1-2" data-name="Layer 1"><path class="cls-1" d="M131.44,254.24H237V368.4H131.44ZM114.15,0H0V114.16H114.15V0ZM0,237H114.15V131.44H0Zm0,17.28V368.4H114.15V254.24ZM131.44,237H237V131.44H131.44Zm122.8,0H368.4V131.44H254.24ZM237,0H131.44V114.16H237V0Zm17.28,0h0V114.16H368.4V0Zm0,368.4H368.4V254.24H254.24Zm114.16,5.94H0V390H368.4ZM202.43,415V393.79H166V415ZM45.1,415V393.79H8.64V415Zm278.19-21.24V415h36.46V393.79Zm45.11,25H0v15.67H368.4Z"/></g></g></svg>